<svg width="55" height="47" viewBox="0 0 55 47" fill="none" xmlns="http://www.w3.org/2000/svg">
<path d="M7.3763 0.00667443C6.8571 -0.0444415 6.35132 0.234088 6.16781 0.695175C4.07756 5.97473 3.84928 11.4035 4.18945 13.5138C1.37187 16.7623 0 20.5021 0 24.9304C0 39.1605 8.00405 46.9958 22.5362 46.9958L27.5 47L32.4638 46.9958C46.996 46.9958 55 39.1605 55 24.9304C55 20.5021 53.6293 16.7612 50.8105 13.5138C51.1507 11.4035 50.9224 5.97473 48.8322 0.695175C48.6487 0.233045 48.144 -0.0475712 47.6192 0.00667443C47.3988 0.0306677 42.2369 0.648232 34.4824 5.88188C32.795 5.50529 30.2986 5.29353 27.5 5.29353C24.7014 5.29353 22.2061 5.50529 20.5176 5.88188C12.7608 0.647189 7.59674 0.0306677 7.3763 0.00667443ZM7.99398 2.30168C9.74742 2.71478 13.9704 4.0271 19.6 7.90566C19.8921 8.10386 20.2669 8.16645 20.6116 8.0684C22.0539 7.66781 24.6276 7.42997 27.5 7.42997C30.3735 7.42997 32.9483 7.66781 34.3884 8.0684C34.7308 8.16437 35.1068 8.10491 35.4 7.90566C41.0273 4.02815 45.2526 2.71478 47.006 2.30168C48.8702 7.56454 48.7662 12.7106 48.501 13.422C48.3533 13.7871 48.4305 14.194 48.7024 14.4902C51.4349 17.4696 52.7083 20.789 52.7083 24.9304C52.7083 41.4023 41.6987 44.8594 32.4638 44.8594L27.5 44.8636L22.5362 44.8594C13.3013 44.8594 2.29167 41.4023 2.29167 24.9304C2.29167 20.789 3.56506 17.4706 6.29761 14.4902C6.56281 14.2023 6.6333 13.7809 6.49902 13.422C6.23271 12.7085 6.13088 7.56349 7.99398 2.30168ZM17.1562 19.2388C14.4862 19.3101 12.0822 19.8452 10.2275 21.5964C8.00293 23.7036 6.875 26.3283 6.875 29.3994C6.875 41.6975 17.023 42.7271 27.5806 42.7271C37.9748 42.7271 48.125 41.6975 48.125 29.3994C48.125 26.3283 46.9982 23.7005 44.7725 21.5922C41.8084 18.7913 37.4388 19.1105 32.8129 19.4474C31.1255 19.5705 29.3788 19.6978 27.5806 19.6978H27.4194C25.6212 19.6978 23.8745 19.5705 22.1871 19.4474C20.4524 19.3219 18.7582 19.196 17.1562 19.2388ZM17.7425 21.3586C19.0428 21.3586 20.4728 21.4639 22.0125 21.5755C23.7436 21.7028 25.5272 21.8228 27.4552 21.8301C29.4616 21.8708 31.2463 21.7018 32.9919 21.5755C37.4265 21.2574 40.9233 21.0018 43.1388 23.0944C44.927 24.7885 45.8333 26.9083 45.8333 29.3994C45.8333 38.8068 39.4194 40.5907 27.4194 40.5907C15.5829 40.5907 9.16667 38.8068 9.16667 29.3994C9.16667 26.9083 10.0742 24.7875 11.8612 23.0944C13.308 21.7268 15.3009 21.3586 17.7425 21.3586ZM18.3333 23.4992C15.7205 23.4992 13.75 26.7143 13.75 30.9767C13.75 35.2391 15.7205 38.4542 18.3333 38.4542C20.9461 38.4542 22.9167 35.2391 22.9167 30.9767C22.9167 26.7143 20.9461 23.4992 18.3333 23.4992ZM36.6667 23.4992C34.0539 23.4992 32.0833 26.7143 32.0833 30.9767C32.0833 35.2391 34.0539 38.4542 36.6667 38.4542C39.2795 38.4542 41.25 35.2391 41.25 30.9767C41.25 26.7143 39.2795 23.4992 36.6667 23.4992ZM18.3333 25.6356C19.2677 25.6356 20.625 27.7168 20.625 30.9767C20.625 34.2367 19.2677 36.3178 18.3333 36.3178C17.399 36.3178 16.0417 34.2367 16.0417 30.9767C16.0417 27.7168 17.399 25.6356 18.3333 25.6356ZM36.6667 25.6356C37.601 25.6356 38.9583 27.7168 38.9583 30.9767C38.9583 34.2367 37.601 36.3178 36.6667 36.3178C35.7323 36.3178 34.375 34.2367 34.375 30.9767C34.375 27.7168 35.7323 25.6356 36.6667 25.6356Z" fill="#312F5D"/>
</svg>
