<?xml version="1.0" encoding="UTF-8"?>
<svg xmlns="http://www.w3.org/2000/svg" xmlns:xlink="http://www.w3.org/1999/xlink" viewBox="0 0 48 48" width="48px" height="48px">
<g id="surface35417714">
<path style=" stroke:none;fill-rule:nonzero;fill:rgb(10.588235%,25.882354%,38.431373%);fill-opacity:1;" d="M 18.0625 -0.0625 C 17.132812 -0.0625 16.375 0.695312 16.375 1.625 L 16.375 7.375 C 10.9375 7.992188 7.1875 9.242188 7.1875 10.6875 L 7.1875 13.4375 C 7.1875 14 7.789062 14.515625 8.8125 15 C 11.492188 16.257812 17.289062 17.125 24 17.125 C 30.71875 17.125 36.5 16.257812 39.1875 15 C 40.203125 14.515625 40.8125 14 40.8125 13.4375 L 40.8125 10.6875 C 40.8125 9.195312 36.757812 7.898438 31 7.3125 L 31 1.625 C 31 0.695312 30.242188 -0.0625 29.3125 -0.0625 Z M 19.75 3 L 27.6875 3 C 27.859375 3 27.9375 3.804688 27.9375 4.8125 L 27.9375 7.0625 C 26.664062 7 25.375 6.9375 24 6.9375 C 22.578125 6.9375 21.1875 6.992188 19.875 7.0625 L 19.4375 7.125 L 19.4375 4.8125 C 19.4375 3.804688 19.585938 3 19.75 3 Z M 9.5625 19.0625 C 9.382812 19.25 9.289062 19.421875 9.25 19.625 L 9.25 19.75 C 9.25 19.78125 9.242188 19.851562 9.25 19.875 L 10.375 43.375 C 10.476562 45.21875 12.609375 48 24 48 C 35.390625 48 37.523438 45.21875 37.625 43.375 L 38.75 19.875 C 38.75 19.84375 38.75 19.78125 38.75 19.75 L 38.75 19.625 C 38.71875 19.421875 38.617188 19.25 38.4375 19.0625 C 36.96875 20.554688 31.054688 20.75 24 20.75 C 16.945312 20.75 11.039062 20.554688 9.5625 19.0625 Z M 9.5625 19.0625 "/>
</g>
</svg>
