<svg width="46" height="43" viewBox="0 0 46 43" fill="none" xmlns="http://www.w3.org/2000/svg">
<path d="M6 0.0117188C4.31261 0.0117188 2.83548 0.491633 1.75391 1.36523C0.672334 2.23884 0.0117188 3.53322 0.0117188 4.94727C0.0117188 7.69084 2.46871 9.81447 5.7168 9.94141C5.80841 9.97073 5.90382 9.98653 6 9.98828C7.75357 9.98828 9.24619 9.47427 10.3125 8.56445C11.3788 7.65464 11.9883 6.34294 11.9883 4.94727C11.9881 4.92902 11.9875 4.91079 11.9863 4.89258C11.8323 2.13168 9.37478 0.0117187 6 0.0117188ZM6 1.98828C8.60907 1.98828 9.89588 3.26934 10.0059 4.97266C9.99876 5.80493 9.67656 6.5119 9.03125 7.0625C8.37881 7.61919 7.37143 8.01172 6 8.01172C3.39805 8.01172 1.98828 6.59917 1.98828 4.94727C1.98828 4.12131 2.32767 3.44224 2.99609 2.90234C3.66452 2.36245 4.68739 1.98828 6 1.98828ZM1 12C0.734792 12 0.480453 12.1054 0.292922 12.2929C0.105392 12.4805 2.65169e-05 12.7348 0 13V42C2.65169e-05 42.2652 0.105392 42.5195 0.292922 42.7071C0.480453 42.8946 0.734792 43 1 43H11C11.2652 43 11.5195 42.8946 11.7071 42.7071C11.8946 42.5195 12 42.2652 12 42V32.6641V13C12 12.7348 11.8946 12.4805 11.7071 12.2929C11.5195 12.1054 11.2652 12 11 12H1ZM16 12C15.7348 12 15.4805 12.1054 15.2929 12.2929C15.1054 12.4805 15 12.7348 15 13V42C15 42.2652 15.1054 42.5195 15.2929 42.7071C15.4805 42.8946 15.7348 43 16 43H26C26.2652 43 26.5195 42.8946 26.7071 42.7071C26.8946 42.5195 27 42.2652 27 42V26V25.75V25.5C27 23.5556 28.5556 22 30.5 22C32.4444 22 34 23.5556 34 25.5V42C34 42.2652 34.1054 42.5195 34.2929 42.7071C34.4805 42.8946 34.7348 43 35 43H45C45.2652 43 45.5195 42.8946 45.7071 42.7071C45.8946 42.5195 46 42.2652 46 42V25C46 20.8735 44.7879 17.6045 42.7441 15.375C40.7004 13.1455 37.8492 12 34.7871 12C30.8829 12 28.5216 13.4261 27 14.6016V13C27 12.7348 26.8946 12.4805 26.7071 12.2929C26.5195 12.1054 26.2652 12 26 12H16ZM2 14H10V32.6641V41H2V14ZM17 14H25V16.6387C25.0001 16.841 25.0615 17.0386 25.1762 17.2053C25.2909 17.372 25.4535 17.4999 25.6424 17.5723C25.8314 17.6447 26.0378 17.658 26.2345 17.6106C26.4312 17.5632 26.6089 17.4572 26.7441 17.3066C26.7441 17.3066 29.7098 14 34.7871 14C37.36 14 39.6155 14.9223 41.2695 16.7266C42.9235 18.5309 44 21.2615 44 25V41H36V25.5C36.0013 25.3589 35.9726 25.2191 35.916 25.0898C35.6941 22.2641 33.3803 20 30.5 20C27.4744 20 25 22.4744 25 25.5V25.75V26V41H17V14Z" fill="#312F5D"/>
</svg>
