<svg width="48" height="34" viewBox="0 0 48 34" fill="none" xmlns="http://www.w3.org/2000/svg">
<path d="M44 0.5H4C1.79688 0.5 0 2.14714 0 4.16667V29.8333C0 31.8529 1.79688 33.5 4 33.5H44C46.2031 33.5 48 31.8529 48 29.8333V4.16667C48 2.14714 46.2031 0.5 44 0.5ZM30.0312 16.9355C35.2266 12.6029 43.2344 5.88542 45.8906 3.6582C45.9375 3.82292 46 3.98763 46 4.16667V29.8333C46 30.0052 45.9453 30.1556 45.8906 30.3132C43.2188 27.9714 35.2109 21.0104 30.0312 16.9355ZM44 2.33333C44.1484 2.33333 44.2734 2.38346 44.4141 2.41211C40.9531 5.3125 29.4687 14.9447 25.4531 18.2604C25.1328 18.5254 24.6328 18.8333 24 18.8333C23.3672 18.8333 22.8672 18.5254 22.5469 18.2604C18.5313 14.9447 7.04688 5.3125 3.58594 2.41211C3.71875 2.38346 3.85156 2.33333 4 2.33333H44ZM2.10938 30.3132C2.05469 30.1556 2 30.0052 2 29.8333V4.16667C2 3.98763 2.0625 3.82292 2.10938 3.6582C4.76562 5.88542 12.7734 12.6029 17.9688 16.9355C12.7891 21.0104 4.77344 27.9785 2.10938 30.3132ZM4 31.6667C3.84375 31.6667 3.69531 31.6165 3.54688 31.5807C6.3125 29.1673 14.375 22.1634 19.4609 18.1745C20.125 18.7259 20.7344 19.2272 21.2109 19.6211C22.0312 20.3086 23 20.6667 24 20.6667C25 20.6667 25.9688 20.3086 26.7891 19.6283C27.2656 19.2344 27.875 18.7259 28.5391 18.1745C33.625 22.1634 41.6875 29.1673 44.4531 31.5807C44.3047 31.6165 44.1562 31.6667 44 31.6667H4Z" fill="#312F5D"/>
</svg>
